<svg width="320" height="80" viewBox="0 0 320 80" fill="none" xmlns="http://www.w3.org/2000/svg">
<g clip-path="url(#clip0_578_1)">
<path d="M52.5905 52.437H49.0251C48.8022 51.7647 48.8022 50.1961 48.5794 48.1793C47.0195 51.5406 44.3454 53.1093 40.3343 53.1093C37.6602 53.1093 35.6546 52.437 34.3175 51.0924C32.9805 49.7479 32.0891 47.9552 32.0891 45.9384C32.0891 43.4734 33.2033 41.6807 35.2089 40.1121C37.2145 38.5434 40.5571 37.8712 45.4596 37.8712C46.1281 37.8712 47.2423 37.8712 48.5794 37.8712C48.5794 36.0785 48.3565 34.7339 48.1337 33.8376C47.9109 32.9412 47.2423 32.2689 46.351 31.8207C45.4596 31.3726 44.1226 31.1485 42.5627 31.1485C38.7744 31.1485 36.7688 32.493 36.1003 35.4062L32.7577 34.7339C33.649 30.4762 36.9916 28.2353 43.0083 28.2353C46.351 28.2353 48.5794 28.9076 49.9164 30.4762C51.2535 31.8208 51.922 34.5098 51.922 37.8712V47.9552C52.1448 49.5238 52.3677 51.0925 52.5905 52.437ZM48.5794 40.5602C47.0195 40.5602 45.9053 40.3362 45.2368 40.3362C42.3398 40.3362 40.1114 40.7843 38.5515 41.6807C36.9916 42.577 36.1003 43.9216 36.1003 45.9384C36.1003 47.0588 36.5459 48.1793 37.4373 48.8516C38.3287 49.7479 39.4429 49.972 41.2256 49.972C43.454 49.972 45.2368 49.0756 46.5738 47.507C47.9109 45.9384 48.8022 43.9216 48.8022 41.9048C48.5794 41.6807 48.5794 41.2325 48.5794 40.5602ZM69.5265 49.972V52.8852C68.1894 53.1093 67.0752 53.1093 66.1838 53.1093C61.727 53.1093 59.2758 50.6443 59.2758 45.9384V31.8207H55.0418V28.9076H59.2758L59.4986 23.0813L62.8412 22.8572V29.1317H68.1894V32.0448H62.8412V46.8347C62.8412 49.2997 64.1783 50.4202 66.6295 50.4202C67.5209 50.1961 68.6351 49.972 69.5265 49.972ZM75.0975 35.8544L71.7549 35.1821C72.4234 33.1653 73.5376 31.5967 75.3203 30.2521C77.103 28.9076 79.3315 28.2353 81.5599 28.2353C84.6796 28.2353 87.3537 29.3558 89.3593 31.5967C91.3649 33.8376 92.2563 36.7507 92.2563 40.5602C92.2563 44.3698 91.142 47.2829 89.1365 49.7479C87.1309 51.9888 84.4568 53.3333 81.337 53.3333C78.2173 53.3333 75.766 52.2129 73.9833 50.1961C72.2005 47.9552 71.0863 44.8179 71.0863 40.5602H88.2451C88.2451 36.9748 87.5766 34.5098 86.0167 33.3894C84.4568 32.0448 82.8969 31.5967 81.337 31.5967C78.4401 31.1485 76.2117 32.7171 75.0975 35.8544ZM75.3203 43.0252C75.3203 44.3698 75.5432 45.4902 75.9888 46.6107C76.4345 47.7311 77.103 48.6275 77.9944 49.2997C78.8858 49.972 80.2228 50.4202 81.5599 50.4202C83.3426 50.4202 84.9025 49.7479 86.2395 48.4034C87.5766 47.0588 88.2451 45.2661 88.4679 43.0252H75.3203ZM94.039 46.3866L97.6044 45.7143C98.0501 47.2829 98.9415 48.6275 100.279 49.0756C101.616 49.7479 103.175 49.972 104.958 49.972C106.518 49.972 107.855 49.5238 108.746 48.8516C109.861 48.1793 110.306 47.2829 110.306 45.9384C110.306 44.1457 108.969 42.8011 106.295 42.353L101.393 41.4566C99.3872 41.0084 97.8273 40.3362 96.7131 39.2157C95.5989 38.0953 94.9303 36.7507 94.9303 34.958C94.9303 32.9412 95.5989 31.3726 97.1588 30.028C98.7186 28.6835 100.724 28.0112 103.398 28.0112C108.524 28.0112 111.643 30.028 112.758 34.0616L109.415 34.7339C108.524 32.2689 106.518 31.1485 103.398 31.1485C101.838 31.1485 100.724 31.3726 99.8328 32.0448C98.9415 32.7171 98.4958 33.6135 98.4958 34.7339C98.4958 36.5266 99.61 37.6471 102.061 38.0953L106.741 38.9916C111.421 39.888 113.872 42.1289 113.872 45.9384C113.872 48.1793 112.98 49.972 111.198 51.3165C109.415 52.6611 107.187 53.3333 104.29 53.3333L103.844 54.902C105.404 54.902 106.518 55.1261 107.187 55.7983C107.855 56.4706 108.301 57.1429 108.301 58.0392C108.301 58.9356 107.855 59.6079 107.187 60.5042C106.518 61.1765 105.404 61.6247 103.844 61.6247C102.284 61.6247 100.947 61.1765 99.61 60.5042L100.056 58.9356C101.17 59.3838 102.284 59.8319 103.398 59.8319C104.067 59.8319 104.735 59.6079 105.181 59.3838C105.627 59.1597 105.85 58.7115 105.85 58.2633C105.85 57.1429 104.958 56.6947 103.175 56.6947C102.73 56.6947 102.284 56.6947 101.393 56.9188L102.507 53.7815C98.0501 52.437 95.1532 50.1961 94.039 46.3866ZM137.939 25.0981V28.0112C136.156 28.0112 135.042 28.2353 134.596 28.6835C133.928 29.1317 133.705 29.8039 133.482 30.7003C135.042 32.493 135.71 34.2857 135.71 36.3025C135.71 38.5434 134.819 40.3362 133.259 41.9048C131.699 43.4734 129.471 44.1457 126.574 44.1457C125.905 44.1457 125.46 44.1457 125.014 43.9216C124.123 43.6975 123.677 43.6975 123.454 43.6975C123.008 43.6975 122.563 43.9216 121.894 44.3698C121.226 44.8179 121.003 45.2661 121.003 45.9384C121.003 46.8347 121.448 47.507 122.34 47.7311C123.231 47.9552 125.237 48.1793 128.357 48.1793C131.031 48.1793 133.036 48.4034 134.373 48.6275C135.71 48.8516 136.824 49.5238 137.716 50.6443C138.607 51.5406 139.053 52.8852 139.053 54.2297C139.053 58.7115 135.042 60.9524 127.242 60.9524C123.454 60.9524 120.78 60.2801 118.997 59.1597C117.214 58.0392 116.546 56.4706 116.546 54.6779C116.546 52.437 117.66 50.8684 120.111 49.972C118.552 48.8516 117.883 47.7311 117.883 46.1625C117.883 44.3698 118.997 43.0252 121.226 41.9048C119.22 40.3362 118.106 38.0953 118.106 35.6303C118.106 33.3894 118.997 31.3726 120.78 29.8039C122.563 28.2353 124.568 27.563 127.019 27.563C128.802 27.563 130.362 28.0112 131.922 28.4594C132.145 26.8908 132.591 25.7703 133.482 25.3222C134.373 24.6499 135.71 24.4258 137.27 24.4258C137.27 25.0981 137.493 25.0981 137.939 25.0981ZM122.34 51.5406C120.557 52.2129 119.889 53.3333 119.889 54.6779C119.889 55.7983 120.557 56.9188 121.894 57.367C123.231 58.0392 125.014 58.2633 127.242 58.2633C129.248 58.2633 131.031 58.0392 132.813 57.367C134.596 56.6947 135.265 55.7983 135.265 54.4538C135.265 53.7815 135.042 53.1093 134.596 52.6611C134.15 52.2129 133.482 51.9888 132.59 51.7647C131.699 51.5406 130.139 51.5406 128.134 51.5406C125.46 51.7647 123.677 51.5406 122.34 51.5406ZM126.797 41.4566C128.357 41.4566 129.694 41.0084 130.585 40.1121C131.476 39.2157 132.145 37.8712 132.145 36.3025C132.145 34.7339 131.699 33.3894 130.585 32.493C129.471 31.5967 128.357 30.9244 126.797 30.9244C125.46 30.9244 124.123 31.3726 123.231 32.2689C122.117 33.1653 121.671 34.5098 121.671 36.3025C121.671 37.8712 122.117 38.9916 123.008 40.1121C123.9 41.0084 125.237 41.4566 126.797 41.4566ZM160 52.437H156.435C156.212 51.7647 156.212 50.1961 155.989 48.1793C154.429 51.5406 151.532 53.1093 147.744 53.1093C145.07 53.1093 143.064 52.437 141.727 51.0924C140.39 49.7479 139.721 47.9552 139.721 45.9384C139.721 43.4734 140.613 41.6807 142.841 40.1121C144.847 38.5434 148.189 37.8712 153.092 37.8712C153.76 37.8712 154.875 37.8712 156.212 37.8712C156.212 36.0785 155.989 34.7339 155.766 33.8376C155.543 32.9412 154.875 32.2689 153.983 31.8207C153.092 31.3726 151.755 31.1485 150.418 31.1485C146.629 31.1485 144.624 32.493 143.955 35.4062L140.613 34.7339C141.504 30.4762 144.847 28.2353 151.086 28.2353C154.429 28.2353 156.657 28.9076 157.994 30.4762C159.331 31.8208 160 34.5098 160 37.8712V47.9552C159.554 49.5238 159.777 51.0925 160 52.437ZM155.989 40.5602C154.429 40.5602 153.315 40.3362 152.646 40.3362C149.749 40.3362 147.521 40.7843 145.961 41.6807C144.401 42.577 143.51 43.9216 143.51 45.9384C143.51 47.0588 143.955 48.1793 144.847 48.8516C145.738 49.7479 146.852 49.972 148.635 49.972C150.863 49.972 152.646 49.0756 153.983 47.507C155.32 45.9384 156.212 43.9216 156.212 41.9048C155.989 41.6807 155.989 41.2325 155.989 40.5602ZM184.735 52.437H181.17V38.0953C181.17 36.3025 181.17 35.1821 180.947 34.2857C180.724 33.3894 180.279 32.7171 179.387 32.0448C178.719 31.3726 177.604 31.1485 176.713 31.1485C174.93 31.1485 173.37 31.8207 172.033 33.3894C170.696 34.958 170.251 36.9748 170.251 39.6639V52.437H166.685V20.6163H170.251V33.1653C171.811 29.8039 174.262 28.2353 177.382 28.2353C178.719 28.2353 180.056 28.4594 181.17 29.1317C182.284 29.5799 183.175 30.4762 183.621 31.3726C184.29 32.2689 184.512 33.1653 184.735 34.0616C184.958 34.958 184.958 36.3025 184.958 38.3193V52.437H184.735Z" fill="#323E48"/>
<path d="M188.524 46.3866L192.089 45.7143C192.758 48.6275 195.209 50.1961 199.443 50.1961C201.003 50.1961 202.34 49.7479 203.231 49.0756C204.345 48.4034 204.791 47.507 204.791 46.1625C204.791 44.3698 203.454 43.0252 200.78 42.577L195.877 41.6807C193.872 41.2325 192.312 40.5602 191.198 39.4398C190.084 38.3193 189.415 36.9748 189.415 35.1821C189.415 33.1653 190.084 31.5967 191.866 30.2521C193.426 28.9076 195.432 28.2353 198.106 28.2353C203.231 28.2353 206.351 30.2521 207.465 34.2857L204.123 34.958C203.231 32.493 201.226 31.3726 198.106 31.3726C196.546 31.3726 195.432 31.5967 194.54 32.2689C193.649 32.9412 193.203 33.8376 193.203 34.7339C193.203 36.5266 194.318 37.6471 196.769 38.0953L201.226 38.9916C205.905 39.888 208.357 42.1289 208.357 45.9384C208.357 48.1793 207.465 49.7479 205.682 51.0925C203.9 52.437 201.448 53.1093 198.552 53.1093C193.203 53.1093 189.638 50.8684 188.524 46.3866ZM216.825 52.437H213.259V28.9076H216.825V52.437ZM242.674 25.0981V28.0112C241.114 28.0112 240 28.2353 239.331 28.6835C238.663 29.1317 238.44 29.8039 238.217 30.7003C239.777 32.493 240.446 34.2857 240.446 36.3025C240.446 38.5434 239.554 40.3362 237.994 41.9048C236.435 43.4734 234.206 44.1457 231.309 44.1457C230.641 44.1457 230.195 44.1457 229.749 43.9216C228.858 43.6975 228.412 43.6975 228.189 43.6975C227.744 43.6975 227.298 43.9216 226.63 44.3698C225.961 44.8179 225.738 45.2661 225.738 45.9384C225.738 46.8348 226.184 47.507 227.075 47.7311C227.967 47.9552 229.972 48.1793 233.092 48.1793C235.766 48.1793 237.772 48.4034 239.109 48.6275C240.446 48.8516 241.56 49.5238 242.451 50.6443C243.343 51.5406 243.788 52.8852 243.788 54.2297C243.788 58.7115 239.777 60.9524 231.978 60.9524C228.189 60.9524 225.515 60.2801 223.733 59.1597C221.95 58.0392 221.281 56.4706 221.281 54.6779C221.281 52.437 222.396 50.8684 224.847 49.972C223.287 48.8516 222.618 47.7311 222.618 46.1625C222.618 44.3698 223.733 43.0252 225.961 41.9048C223.955 40.3362 222.841 38.0953 222.841 35.6303C222.841 33.3894 223.733 31.3726 225.515 29.8039C227.298 28.2353 229.304 27.563 231.755 27.563C233.538 27.563 235.097 28.0112 236.657 28.4594C236.88 26.8908 237.326 25.7703 238.217 25.3221C239.109 24.6499 240.446 24.4258 242.006 24.4258C242.006 25.0981 242.451 25.0981 242.674 25.0981ZM227.298 51.5406C225.515 52.2129 224.847 53.3333 224.847 54.6779C224.847 55.7983 225.515 56.9188 226.852 57.367C228.189 58.0392 229.972 58.2633 232.201 58.2633C234.206 58.2633 235.989 58.0392 237.772 57.367C239.554 56.6947 240.223 55.7983 240.223 54.4538C240.223 53.7815 240 53.1093 239.554 52.6611C239.109 52.2129 238.44 51.9888 237.549 51.7647C236.657 51.5406 235.097 51.5406 233.092 51.5406C230.418 51.7647 228.412 51.5406 227.298 51.5406ZM224.847 18.8235H227.521C227.967 20.8404 229.304 21.9608 231.755 21.9608C234.206 21.9608 235.766 20.8404 236.212 18.8235H238.886C238.217 22.8572 235.989 24.874 232.201 24.874C227.744 24.874 225.292 22.8572 224.847 18.8235ZM231.532 41.4566C233.092 41.4566 234.429 41.0084 235.32 40.1121C236.212 39.2157 236.88 37.8712 236.88 36.3025C236.88 34.7339 236.435 33.3894 235.32 32.493C234.206 31.5967 233.092 30.9244 231.532 30.9244C230.195 30.9244 228.858 31.3726 227.967 32.2689C226.852 33.1653 226.407 34.5098 226.407 36.3025C226.407 37.8712 226.852 38.9916 227.744 40.1121C228.858 41.0084 229.972 41.4566 231.532 41.4566ZM254.93 53.1093C251.811 53.1093 249.136 51.9888 247.354 49.5238C245.571 47.0588 244.68 44.1457 244.68 40.5602C244.68 36.7507 245.794 33.8376 247.799 31.5967C249.805 29.3558 252.256 28.2353 255.376 28.2353C258.496 28.2353 261.17 29.3558 262.953 31.8207C264.735 34.0616 265.85 37.1989 265.85 40.5602C265.85 44.1457 264.735 47.2829 262.73 49.5238C260.724 51.9888 258.05 53.1093 254.93 53.1093ZM255.153 49.972C256.936 49.972 258.496 49.2997 259.833 47.7311C261.17 46.1625 261.616 43.6975 261.616 40.5602C261.616 37.1989 260.947 34.958 259.61 33.3894C258.273 31.8207 256.713 31.1485 254.93 31.1485C253.148 31.1485 251.588 31.8207 250.251 33.3894C248.914 34.958 248.468 37.1989 248.468 40.5602C248.468 43.9216 249.136 46.3866 250.251 47.9552C251.811 49.2997 253.37 49.972 255.153 49.972ZM274.318 52.437H270.752V28.9076H273.872V34.5098C274.986 31.8207 276.1 30.2521 277.214 29.3558C278.329 28.6835 279.443 28.2353 280.78 28.2353C281.226 28.2353 281.671 28.2353 282.117 28.2353V31.8207H281.448C279.443 31.8207 277.66 32.493 276.546 34.0616C275.209 35.6303 274.54 37.6471 274.318 40.1121V52.437ZM298.162 49.972V52.8852C296.825 53.1093 295.71 53.1093 294.819 53.1093C290.362 53.1093 287.911 50.6443 287.911 45.9384V31.8207H283.677V28.9076H287.911L288.134 23.0813L291.476 22.8572V29.1317H296.824V32.0448H291.476V46.8348C291.476 49.2997 292.813 50.4202 295.265 50.4202C296.156 50.1961 297.047 49.972 298.162 49.972ZM320 52.437H316.435C316.212 51.7647 316.212 50.1961 315.989 48.1793C314.429 51.5406 311.532 53.1093 307.744 53.1093C305.07 53.1093 303.064 52.437 301.727 51.0925C300.39 49.7479 299.721 47.9552 299.721 45.9384C299.721 43.4734 300.836 41.6807 302.841 40.1121C304.847 38.5434 308.189 37.8712 313.092 37.8712C313.76 37.8712 314.875 37.8712 316.212 37.8712C316.212 36.0784 315.989 34.7339 315.766 33.8376C315.543 32.9412 314.875 32.2689 313.983 31.8207C313.092 31.3726 311.755 31.1485 310.418 31.1485C306.63 31.1485 304.624 32.493 303.955 35.4062L300.613 34.7339C301.504 30.4762 304.847 28.2353 310.864 28.2353C314.206 28.2353 316.435 28.9076 317.772 30.4762C319.109 31.8207 319.777 34.5098 319.777 37.8712V47.9552C319.554 49.5238 319.777 51.0925 320 52.437ZM315.989 40.5602C314.429 40.5602 313.315 40.3362 312.646 40.3362C309.749 40.3362 307.521 40.7843 305.961 41.6807C304.401 42.577 303.51 43.9216 303.51 45.9384C303.51 47.0588 303.955 48.1793 304.847 48.8516C305.738 49.5238 306.852 49.972 308.635 49.972C310.864 49.972 312.646 49.0756 313.983 47.507C315.32 45.9384 316.212 43.9216 316.212 41.9048C316.212 41.6807 315.989 41.2325 315.989 40.5602Z" fill="#FF8300"/>
<path d="M6.01245 36.7507C10.4693 29.1316 14.7033 22.1849 14.4804 16.1345L14.0347 12.1008L16.0403 14.5658C16.7088 15.4622 17.3774 16.3585 18.0459 17.479C18.9372 11.8767 17.3774 6.05042 12.4748 0C12.9205 6.94678 8.4637 14.3417 3.5612 22.6331C-0.449946 29.3557 -1.56415 36.7507 2.66983 44.3697C3.33836 42.1288 4.22972 39.6639 5.78961 37.423L6.01245 36.7507Z" fill="#FFCD00"/>
<path d="M10.0278 51.7647C14.4847 44.1456 18.7186 37.1989 18.273 31.1484L18.0501 27.1148L20.0557 29.5798C20.2785 30.028 20.7242 30.4762 20.947 30.9243C20.947 26.2185 19.3872 21.0644 15.376 15.9103C15.8217 22.8571 11.3649 30.4762 6.46237 38.5434C2.22839 45.7143 1.33702 53.5574 6.23953 61.6246C6.68521 58.4874 8.02226 55.3501 9.80499 52.4369L10.0278 51.7647Z" fill="#FF8300"/>
<path d="M19.3872 30.9244C19.8328 37.8712 15.376 45.4902 10.4735 53.5574C5.57101 61.8487 5.12533 70.5882 12.4791 80C12.0334 73.0532 16.4902 65.6583 21.3927 57.367C26.5181 49.2997 26.7409 40.3361 19.3872 30.9244Z" fill="#E1251B"/>
</g>
<defs>
<clipPath id="clip0_578_1">
<rect width="320" height="80" fill="white"/>
</clipPath>
</defs>
</svg>
