<svg width="150" height="38" viewBox="0 0 150 38" fill="none" xmlns="http://www.w3.org/2000/svg">
<g clip-path="url(#clip0_2002_2989)">
<path d="M24.6518 24.4429H22.9805C22.876 24.1295 22.876 23.3983 22.7716 22.4582C22.0404 24.0251 20.7869 24.7563 18.9067 24.7563C17.6532 24.7563 16.7131 24.4429 16.0863 23.8162C15.4596 23.1894 15.0417 22.3538 15.0417 21.4137C15.0417 20.2646 15.564 19.429 16.5041 18.6978C17.4443 17.9666 19.0111 17.6532 21.3092 17.6532C21.6225 17.6532 22.1448 17.6532 22.7716 17.6532C22.7716 16.8176 22.6671 16.1908 22.5626 15.773C22.4582 15.3552 22.1448 15.0418 21.727 14.8329C21.3092 14.624 20.6824 14.5195 19.9512 14.5195C18.1755 14.5195 17.2353 15.1463 16.922 16.5042L15.3551 16.1908C15.7729 14.2061 17.3398 13.1616 20.1601 13.1616C21.727 13.1616 22.7716 13.4749 23.3983 14.2061C24.025 14.8329 24.3384 16.0864 24.3384 17.6532V22.3538C24.4429 23.085 24.5473 23.8162 24.6518 24.4429ZM22.7716 18.9067C22.0404 18.9067 21.5181 18.8022 21.2047 18.8022C19.8468 18.8022 18.8022 19.0112 18.071 19.429C17.3398 19.8468 16.922 20.4736 16.922 21.4137C16.922 21.9359 17.1309 22.4582 17.5487 22.7716C17.9665 23.1894 18.4888 23.2939 19.3245 23.2939C20.369 23.2939 21.2047 22.8761 21.8314 22.1449C22.4582 21.4137 22.876 20.4736 22.876 19.5334C22.7716 19.429 22.7716 19.2201 22.7716 18.9067ZM32.5905 23.2939V24.6518C31.9638 24.7563 31.4415 24.7563 31.0236 24.7563C28.9345 24.7563 27.7855 23.6073 27.7855 21.4137V14.8329H25.8008V13.4749H27.7855L27.8899 10.7591L29.4568 10.6546V13.5794H31.9637V14.9373H29.4568V21.8315C29.4568 22.9805 30.0835 23.5028 31.2326 23.5028C31.6504 23.3983 32.1727 23.2939 32.5905 23.2939ZM35.2019 16.7131L33.6351 16.3997C33.9484 15.4596 34.4707 14.7284 35.3064 14.1017C36.142 13.4749 37.1866 13.1616 38.2312 13.1616C39.6936 13.1616 40.947 13.6839 41.8871 14.7284C42.8273 15.773 43.2451 17.1309 43.2451 18.9067C43.2451 20.6825 42.7228 22.0404 41.7827 23.1894C40.8426 24.234 39.5891 24.8607 38.1267 24.8607C36.6643 24.8607 35.5153 24.3385 34.6796 23.3983C33.844 22.3538 33.3217 20.8914 33.3217 18.9067H41.3649C41.3649 17.2354 41.0515 16.0864 40.3203 15.5641C39.5891 14.9373 38.8579 14.7284 38.1267 14.7284C36.7688 14.5195 35.7242 15.2507 35.2019 16.7131ZM35.3064 20.0557C35.3064 20.6825 35.4108 21.2047 35.6197 21.727C35.8286 22.2493 36.142 22.6671 36.5598 22.9805C36.9777 23.2939 37.6044 23.5028 38.2312 23.5028C39.0668 23.5028 39.798 23.1894 40.4247 22.5627C41.0515 21.9359 41.3649 21.1003 41.4693 20.0557H35.3064ZM44.0807 21.6226L45.752 21.3092C45.961 22.0404 46.3788 22.6671 47.0055 22.8761C47.6323 23.1894 48.3635 23.2939 49.1991 23.2939C49.9303 23.2939 50.5571 23.085 50.9749 22.7716C51.4972 22.4582 51.7061 22.0404 51.7061 21.4137C51.7061 20.578 51.0793 19.9513 49.8259 19.7424L47.5278 19.3245C46.5877 19.1156 45.8565 18.8022 45.3342 18.28C44.8119 17.7577 44.4986 17.1309 44.4986 16.2953C44.4986 15.3552 44.8119 14.624 45.5431 13.9972C46.2743 13.3705 47.2144 13.0571 48.4679 13.0571C50.8704 13.0571 52.3328 13.9972 52.8551 15.8775L51.2883 16.1908C50.8704 15.0418 49.9303 14.5195 48.4679 14.5195C47.7367 14.5195 47.2144 14.624 46.7966 14.9373C46.3788 15.2507 46.1699 15.6685 46.1699 16.1908C46.1699 17.0265 46.6922 17.5488 47.8412 17.7577L50.0348 18.1755C52.2284 18.5933 53.3774 19.6379 53.3774 21.4137C53.3774 22.4582 52.9596 23.2939 52.1239 23.9206C51.2883 24.5474 50.2437 24.8607 48.8857 24.8607L48.6768 25.5919C49.408 25.5919 49.9303 25.6964 50.2437 26.0098C50.5571 26.3231 50.766 26.6365 50.766 27.0543C50.766 27.4722 50.5571 27.7855 50.2437 28.2034C49.9303 28.5167 49.408 28.7256 48.6768 28.7256C47.9456 28.7256 47.3189 28.5167 46.6922 28.2034L46.9011 27.4722C47.4234 27.6811 47.9456 27.89 48.4679 27.89C48.7813 27.89 49.0947 27.7855 49.3036 27.6811C49.5125 27.5766 49.6169 27.3677 49.6169 27.1588C49.6169 26.6365 49.1991 26.4276 48.3635 26.4276C48.1546 26.4276 47.9456 26.4276 47.5278 26.532L48.0501 25.0697C45.961 24.4429 44.603 23.3983 44.0807 21.6226ZM64.6587 11.6992V13.0571C63.8231 13.0571 63.3008 13.1616 63.0919 13.3705C62.7785 13.5794 62.674 13.8928 62.5696 14.3106C63.3008 15.1463 63.6142 15.9819 63.6142 16.922C63.6142 17.9666 63.1963 18.8022 62.4651 19.5334C61.7339 20.2646 60.6894 20.578 59.3314 20.578C59.0181 20.578 58.8091 20.578 58.6002 20.4736C58.1824 20.3691 57.9735 20.3691 57.869 20.3691C57.6601 20.3691 57.4512 20.4736 57.1378 20.6825C56.8245 20.8914 56.72 21.1003 56.72 21.4137C56.72 21.8315 56.9289 22.1449 57.3467 22.2493C57.7646 22.3538 58.7047 22.4582 60.1671 22.4582C61.4206 22.4582 62.3607 22.5627 62.9874 22.6671C63.6142 22.7716 64.1364 23.085 64.5543 23.6073C64.9721 24.0251 65.181 24.6518 65.181 25.2786C65.181 27.3677 63.3008 28.4123 59.6448 28.4123C57.869 28.4123 56.6156 28.0989 55.7799 27.5766C54.9442 27.0543 54.6309 26.3231 54.6309 25.4875C54.6309 24.4429 55.1532 23.7117 56.3022 23.2939C55.571 22.7716 55.2576 22.2493 55.2576 21.5181C55.2576 20.6825 55.7799 20.0557 56.8245 19.5334C55.8844 18.8022 55.3621 17.7577 55.3621 16.6087C55.3621 15.5641 55.7799 14.624 56.6156 13.8928C57.4512 13.1616 58.3913 12.8482 59.5403 12.8482C60.376 12.8482 61.1072 13.0571 61.8384 13.266C61.9429 12.5348 62.1518 12.0126 62.5696 11.8036C62.9874 11.4903 63.6142 11.3858 64.3454 11.3858C64.3454 11.6992 64.4498 11.6992 64.6587 11.6992ZM57.3467 24.0251C56.5111 24.3385 56.1977 24.8607 56.1977 25.4875C56.1977 26.0098 56.5111 26.532 57.1378 26.741C57.7646 27.0543 58.6002 27.1588 59.6448 27.1588C60.5849 27.1588 61.4206 27.0543 62.2562 26.741C63.0919 26.4276 63.4052 26.0098 63.4052 25.383C63.4052 25.0696 63.3008 24.7563 63.0919 24.5474C62.883 24.3385 62.5696 24.234 62.1518 24.1295C61.7339 24.0251 61.0027 24.0251 60.0626 24.0251C58.8091 24.1295 57.9735 24.0251 57.3467 24.0251ZM59.4359 19.3245C60.1671 19.3245 60.7938 19.1156 61.2116 18.6978C61.6295 18.28 61.9429 17.6532 61.9429 16.922C61.9429 16.1908 61.7339 15.5641 61.2116 15.1463C60.6894 14.7284 60.1671 14.4151 59.4359 14.4151C58.8091 14.4151 58.1824 14.624 57.7646 15.0418C57.2423 15.4596 57.0334 16.0864 57.0334 16.922C57.0334 17.6532 57.2423 18.1755 57.6601 18.6978C58.0779 19.1156 58.7047 19.3245 59.4359 19.3245ZM75 24.4429H73.3286C73.2242 24.1295 73.2242 23.3983 73.1197 22.4582C72.3885 24.0251 71.0306 24.7563 69.2548 24.7563C68.0013 24.7563 67.0612 24.4429 66.4345 23.8162C65.8077 23.1894 65.4944 22.3538 65.4944 21.4137C65.4944 20.2646 65.9122 19.429 66.9568 18.6978C67.8969 17.9666 69.4637 17.6532 71.7618 17.6532C72.0752 17.6532 72.5974 17.6532 73.2242 17.6532C73.2242 16.8176 73.1197 16.1908 73.0153 15.773C72.9108 15.3552 72.5974 15.0418 72.1796 14.8329C71.7618 14.624 71.135 14.5195 70.5083 14.5195C68.7325 14.5195 67.7924 15.1463 67.4791 16.5042L65.9122 16.1908C66.33 14.2061 67.8969 13.1616 70.8217 13.1616C72.3885 13.1616 73.4331 13.4749 74.0598 14.2061C74.6866 14.8329 75 16.0864 75 17.6532V22.3538C74.791 23.085 74.8955 23.8162 75 24.4429ZM73.1197 18.9067C72.3885 18.9067 71.8662 18.8022 71.5529 18.8022C70.1949 18.8022 69.1504 19.0112 68.4192 19.429C67.688 19.8468 67.2701 20.4736 67.2701 21.4137C67.2701 21.9359 67.4791 22.4582 67.8969 22.7716C68.3147 23.1894 68.837 23.2939 69.6726 23.2939C70.7172 23.2939 71.5529 22.8761 72.1796 22.1449C72.8064 21.4137 73.2242 20.4736 73.2242 19.5334C73.1197 19.429 73.1197 19.2201 73.1197 18.9067ZM86.5947 24.4429H84.9233V17.7577C84.9233 16.922 84.9233 16.3997 84.8189 15.9819C84.7144 15.5641 84.5055 15.2507 84.0877 14.9373C83.7743 14.624 83.252 14.5195 82.8342 14.5195C81.9986 14.5195 81.2673 14.8329 80.6406 15.5641C80.0139 16.2953 79.805 17.2354 79.805 18.4889V24.4429H78.1337V9.61005H79.805V15.4596C80.5362 13.8928 81.6852 13.1616 83.1476 13.1616C83.7743 13.1616 84.4011 13.266 84.9233 13.5794C85.4456 13.7883 85.8635 14.2061 86.0724 14.624C86.3857 15.0418 86.4902 15.4596 86.5947 15.8775C86.6991 16.2953 86.6991 16.922 86.6991 17.8621V24.4429H86.5947Z" fill="white"/>
<path d="M88.3705 21.6225L90.0418 21.3092C90.3552 22.6671 91.5042 23.3983 93.4889 23.3983C94.2201 23.3983 94.8468 23.1894 95.2646 22.876C95.7869 22.5627 95.9958 22.1448 95.9958 21.5181C95.9958 20.6824 95.3691 20.0557 94.1156 19.8468L91.8176 19.4289C90.8775 19.22 90.1463 18.9067 89.624 18.3844C89.1017 17.8621 88.7883 17.2354 88.7883 16.3997C88.7883 15.4596 89.1017 14.7284 89.9373 14.1017C90.6685 13.4749 91.6086 13.1615 92.8621 13.1615C95.2646 13.1615 96.727 14.1017 97.2493 15.9819L95.6825 16.2952C95.2646 15.1462 94.3245 14.6239 92.8621 14.6239C92.1309 14.6239 91.6086 14.7284 91.1908 15.0418C90.773 15.3551 90.5641 15.773 90.5641 16.1908C90.5641 17.0264 91.0864 17.5487 92.2354 17.7576L94.3245 18.1755C96.5181 18.5933 97.6671 19.6379 97.6671 21.4136C97.6671 22.4582 97.2493 23.1894 96.4137 23.8161C95.578 24.4429 94.429 24.7562 93.071 24.7562C90.5641 24.7562 88.8928 23.7117 88.3705 21.6225ZM101.637 24.4429H99.9652V13.4749H101.637V24.4429ZM113.753 11.6991V13.0571C113.022 13.0571 112.5 13.1615 112.187 13.3705C111.873 13.5794 111.769 13.8927 111.664 14.3106C112.396 15.1462 112.709 15.9819 112.709 16.922C112.709 17.9666 112.291 18.8022 111.56 19.5334C110.829 20.2646 109.784 20.578 108.426 20.578C108.113 20.578 107.904 20.578 107.695 20.4735C107.277 20.3691 107.068 20.3691 106.964 20.3691C106.755 20.3691 106.546 20.4735 106.233 20.6824C105.919 20.8913 105.815 21.1003 105.815 21.4136C105.815 21.8315 106.024 22.1448 106.442 22.2493C106.859 22.3537 107.799 22.4582 109.262 22.4582C110.515 22.4582 111.455 22.5627 112.082 22.6671C112.709 22.7716 113.231 23.0849 113.649 23.6072C114.067 24.025 114.276 24.6518 114.276 25.2785C114.276 27.3677 112.396 28.4122 108.74 28.4122C106.964 28.4122 105.71 28.0989 104.875 27.5766C104.039 27.0543 103.726 26.3231 103.726 25.4874C103.726 24.4429 104.248 23.7117 105.397 23.2938C104.666 22.7716 104.352 22.2493 104.352 21.5181C104.352 20.6824 104.875 20.0557 105.919 19.5334C104.979 18.8022 104.457 17.7576 104.457 16.6086C104.457 15.564 104.875 14.6239 105.71 13.8927C106.546 13.1615 107.486 12.8482 108.635 12.8482C109.471 12.8482 110.202 13.0571 110.933 13.266C111.038 12.5348 111.247 12.0125 111.664 11.8036C112.082 11.4902 112.709 11.3858 113.44 11.3858C113.44 11.6991 113.649 11.6991 113.753 11.6991ZM106.546 24.025C105.71 24.3384 105.397 24.8607 105.397 25.4874C105.397 26.0097 105.71 26.532 106.337 26.7409C106.964 27.0543 107.799 27.1588 108.844 27.1588C109.784 27.1588 110.62 27.0543 111.455 26.7409C112.291 26.4276 112.604 26.0097 112.604 25.383C112.604 25.0696 112.5 24.7562 112.291 24.5473C112.082 24.3384 111.769 24.234 111.351 24.1295C110.933 24.025 110.202 24.025 109.262 24.025C108.008 24.1295 107.068 24.025 106.546 24.025ZM105.397 8.77435H106.65C106.859 9.71446 107.486 10.2367 108.635 10.2367C109.784 10.2367 110.515 9.71446 110.724 8.77435H111.978C111.664 10.6546 110.62 11.5947 108.844 11.5947C106.755 11.5947 105.606 10.6546 105.397 8.77435ZM108.531 19.3245C109.262 19.3245 109.889 19.1156 110.306 18.6978C110.724 18.2799 111.038 17.6532 111.038 16.922C111.038 16.1908 110.829 15.564 110.306 15.1462C109.784 14.7284 109.262 14.415 108.531 14.415C107.904 14.415 107.277 14.6239 106.859 15.0418C106.337 15.4596 106.128 16.0863 106.128 16.922C106.128 17.6532 106.337 18.1755 106.755 18.6978C107.277 19.1156 107.799 19.3245 108.531 19.3245ZM119.499 24.7562C118.036 24.7562 116.783 24.234 115.947 23.0849C115.111 21.9359 114.694 20.578 114.694 18.9067C114.694 17.1309 115.216 15.773 116.156 14.7284C117.096 13.6838 118.245 13.1615 119.708 13.1615C121.17 13.1615 122.423 13.6838 123.259 14.8328C124.095 15.8774 124.617 17.3398 124.617 18.9067C124.617 20.578 124.095 22.0404 123.155 23.0849C122.214 24.234 120.961 24.7562 119.499 24.7562ZM119.603 23.2938C120.439 23.2938 121.17 22.9805 121.797 22.2493C122.423 21.5181 122.632 20.3691 122.632 18.9067C122.632 17.3398 122.319 16.2952 121.692 15.564C121.065 14.8328 120.334 14.5195 119.499 14.5195C118.663 14.5195 117.932 14.8328 117.305 15.564C116.678 16.2952 116.469 17.3398 116.469 18.9067C116.469 20.4735 116.783 21.6225 117.305 22.3537C118.036 22.9805 118.767 23.2938 119.603 23.2938ZM128.586 24.4429H126.915V13.4749H128.377V16.0863C128.9 14.8328 129.422 14.1017 129.944 13.6838C130.467 13.3705 130.989 13.1615 131.616 13.1615C131.825 13.1615 132.033 13.1615 132.242 13.1615V14.8328H131.929C130.989 14.8328 130.153 15.1462 129.631 15.8774C129.004 16.6086 128.691 17.5487 128.586 18.6978V24.4429ZM139.763 23.2938V24.6518C139.137 24.7562 138.614 24.7562 138.196 24.7562C136.107 24.7562 134.958 23.6072 134.958 21.4136V14.8328H132.974V13.4749H134.958L135.063 10.759L136.63 10.6546V13.5794H139.136V14.9373H136.63V21.8315C136.63 22.9805 137.256 23.5028 138.405 23.5028C138.823 23.3983 139.241 23.2938 139.763 23.2938ZM150 24.4429H148.329C148.224 24.1295 148.224 23.3983 148.12 22.4582C147.389 24.025 146.031 24.7562 144.255 24.7562C143.001 24.7562 142.061 24.4429 141.435 23.8161C140.808 23.1894 140.494 22.3537 140.494 21.4136C140.494 20.2646 141.017 19.4289 141.957 18.6978C142.897 17.9666 144.464 17.6532 146.762 17.6532C147.075 17.6532 147.597 17.6532 148.224 17.6532C148.224 16.8175 148.12 16.1908 148.015 15.773C147.911 15.3551 147.597 15.0418 147.18 14.8328C146.762 14.6239 146.135 14.5195 145.508 14.5195C143.733 14.5195 142.792 15.1462 142.479 16.5042L140.912 16.1908C141.33 14.2061 142.897 13.1615 145.717 13.1615C147.284 13.1615 148.329 13.4749 148.955 14.2061C149.582 14.8328 149.896 16.0863 149.896 17.6532V22.3537C149.791 23.0849 149.896 23.8161 150 24.4429ZM148.12 18.9067C147.389 18.9067 146.866 18.8022 146.553 18.8022C145.195 18.8022 144.15 19.0111 143.419 19.4289C142.688 19.8468 142.27 20.4735 142.27 21.4136C142.27 21.9359 142.479 22.4582 142.897 22.7716C143.315 23.0849 143.837 23.2938 144.673 23.2938C145.717 23.2938 146.553 22.876 147.18 22.1448C147.806 21.4136 148.224 20.4735 148.224 19.5334C148.224 19.4289 148.12 19.22 148.12 18.9067Z" fill="#FF8300"/>
<path d="M2.8187 17.1309C4.90783 13.5794 6.89251 10.3412 6.78806 7.52089L6.57914 5.64067L7.51925 6.78969C7.83262 7.20752 8.146 7.62535 8.45937 8.14763C8.87719 5.53621 8.146 2.82033 5.84795 0C6.05686 3.23816 3.96772 6.68524 1.66967 10.5501C-0.21055 13.6838 -0.732834 17.1309 1.25185 20.6824C1.56522 19.6379 1.98304 18.4889 2.71424 17.4443L2.8187 17.1309Z" fill="#FFCD00"/>
<path d="M4.70055 24.1295C6.78969 20.578 8.77437 17.3398 8.56545 14.5195L8.461 12.6393L9.40111 13.7883C9.50557 13.9972 9.71448 14.2061 9.81894 14.4151C9.81894 12.2215 9.08774 9.81895 7.20752 7.41644C7.41643 10.6546 5.32729 14.2061 3.02924 17.9666C1.04456 21.3092 0.626735 24.9652 2.92479 28.7256C3.1337 27.2632 3.76044 25.8008 4.59609 24.4429L4.70055 24.1295Z" fill="#FF8300"/>
<path d="M9.08772 14.415C9.29664 17.6532 7.2075 21.2047 4.90945 24.9652C2.6114 28.8301 2.40249 32.9039 5.84956 37.2911C5.64065 34.0529 7.72979 30.6058 10.0278 26.7409C12.4303 22.9805 12.5348 18.8022 9.08772 14.415Z" fill="#E1251B"/>
</g>
<defs>
<clipPath id="clip0_2002_2989">
<rect width="150" height="37.2911" fill="white"/>
</clipPath>
</defs>
</svg>
